<svg width="185" height="39" viewBox="0 0 185 39" fill="none" xmlns="http://www.w3.org/2000/svg">
<path d="M5.05549 2.925H11.6631L16.7186 37.05H11.8405L10.9536 30.2738V30.3712H5.41026L4.52333 37.05H0L5.05549 2.925ZM10.3771 25.74L8.20408 8.8725H8.11539L5.98676 25.74H10.3771Z" fill="white"/>
<path d="M19.0852 2.925H26.0476L29.1519 27.3487H29.2405L32.3448 2.925H39.3072V37.05H34.6951V11.2125H34.6065L31.0587 37.05H26.9789L23.4312 11.2125H23.3425V37.05H19.0852V2.925Z" fill="white"/>
<path d="M42.9474 2.925H50.3089C52.8218 2.925 54.6548 3.575 55.8078 4.875C56.9608 6.1425 57.5373 8.10875 57.5373 10.7737V12.1387C57.5373 13.8937 57.2713 15.3237 56.7391 16.4287C56.2365 17.5337 55.4531 18.33 54.3888 18.8175V18.915C56.813 19.825 58.0252 22.1975 58.0252 26.0325V28.9575C58.0252 31.59 57.3895 33.605 56.1183 35.0025C54.8766 36.3675 53.0436 37.05 50.6193 37.05H42.9474V2.925ZM49.7324 16.8187C50.708 16.8187 51.4323 16.5425 51.9053 15.99C52.4079 15.4375 52.6592 14.5112 52.6592 13.2112V11.31C52.6592 10.075 52.4523 9.18125 52.0384 8.62875C51.6541 8.07625 51.0332 7.8 50.1758 7.8H47.8255V16.8187H49.7324ZM50.6193 32.175C51.4767 32.175 52.1123 31.9312 52.5262 31.4438C52.9401 30.9237 53.1471 30.0462 53.1471 28.8112V25.8375C53.1471 24.2775 52.8958 23.205 52.3932 22.62C51.9201 22.0025 51.1219 21.6937 49.9985 21.6937H47.8255V32.175H50.6193Z" fill="white"/>
<path d="M67.9788 2.925H81.2827V7.8H72.8569V16.8187H79.5532V21.6937H72.8569V32.175H81.2827V37.05H67.9788V2.925Z" fill="white"/>
<path d="M84.089 2.925H90.2088L94.9539 23.3512H95.0426V2.925H99.3885V37.05H94.3774L88.5237 12.1387H88.435V37.05H84.089V2.925Z" fill="white"/>
<path d="M106.828 7.8H101.728V2.925H116.806V7.8H111.706V37.05H106.828V7.8Z" fill="white"/>
<path d="M119.168 2.925H132.472V7.8H124.046V16.8187H130.742V21.6937H124.046V32.175H132.472V37.05H119.168V2.925Z" fill="white"/>
<path d="M134.568 17.55H144.325V22.425H134.568V17.55Z" fill="white"/>
<path d="M153.572 37.5375C151.207 37.5375 149.418 36.8063 148.206 35.3438C146.994 33.8488 146.388 31.72 146.388 28.9575V27.0075H151V29.3475C151 31.5575 151.843 32.6625 153.528 32.6625C154.356 32.6625 154.977 32.4025 155.39 31.8825C155.834 31.33 156.056 30.4525 156.056 29.25C156.056 27.82 155.76 26.5687 155.169 25.4962C154.577 24.3912 153.483 23.075 151.887 21.5475C149.877 19.5975 148.472 17.8425 147.674 16.2825C146.876 14.69 146.477 12.9025 146.477 10.92C146.477 8.2225 147.098 6.1425 148.339 4.68C149.581 3.185 151.384 2.4375 153.75 2.4375C156.085 2.4375 157.844 3.185 159.027 4.68C160.239 6.1425 160.845 8.255 160.845 11.0175V12.4312H156.233V10.6762C156.233 9.50625 156.026 8.66125 155.612 8.14125C155.198 7.58875 154.592 7.3125 153.794 7.3125C152.168 7.3125 151.355 8.40125 151.355 10.5787C151.355 11.8137 151.651 12.9675 152.242 14.04C152.863 15.1125 153.971 16.4125 155.568 17.94C157.608 19.89 159.012 21.6612 159.781 23.2537C160.549 24.8462 160.934 26.715 160.934 28.86C160.934 31.655 160.298 33.8 159.027 35.295C157.785 36.79 155.967 37.5375 153.572 37.5375Z" fill="white"/>
<path d="M163.731 2.925H177.035V7.8H168.609V16.8187H175.305V21.6937H168.609V32.175H177.035V37.05H163.731V2.925Z" fill="white"/>
<path d="M65.2629 21.879V37.5375H59.897V21.879L60.5799 9.92063H64.5799L65.2629 21.879ZM65.1653 5.68425H59.9945V0H65.1653V5.68425Z" fill="white"/>
<path d="M179.634 17.121V1.4625H185V17.121L184.317 29.0794H180.317L179.634 17.121ZM179.732 33.3157H184.902V39H179.732V33.3157Z" fill="white"/>
</svg>
